<svg width="41" height="41" viewBox="0 0 41 41" fill="none" xmlns="http://www.w3.org/2000/svg">
<path d="M11.5268 40.9334C7.10086 40.9334 3.47463 37.4733 3.47463 33.2132V29.1331C3.47463 28.3131 4.10691 27.6331 4.86936 27.6331C5.63182 27.6331 6.26409 28.3131 6.26409 29.1331C6.26409 31.6332 8.51419 33.5132 11.5268 33.5132C14.5394 33.5132 16.7896 31.6332 16.7896 29.1331C16.7896 28.3131 17.4219 27.6331 18.1843 27.6331C18.9468 27.6331 19.5791 28.3131 19.5791 29.1331V33.2132C19.5791 37.4733 15.9714 40.9334 11.5268 40.9334ZM6.74751 35.1732C7.56575 36.8133 9.40682 37.9333 11.5268 37.9333C13.6468 37.9333 15.4879 36.7933 16.3061 35.1732C14.9858 36.0333 13.3493 36.5333 11.5268 36.5333C9.70436 36.5333 8.06785 36.0333 6.74751 35.1732Z" fill="white"/>
<path d="M11.5268 31.0337C8.47699 31.0337 5.74337 29.5337 4.38584 27.1536C3.79075 26.1136 3.47463 24.8936 3.47463 23.6535C3.47463 21.5535 4.33005 19.5935 5.89215 18.1334C8.90477 15.2934 14.0931 15.2935 17.1243 18.1136C18.6864 19.5937 19.5605 21.5535 19.5605 23.6535C19.5605 24.8936 19.2443 26.1136 18.6492 27.1536C17.3103 29.5337 14.5766 31.0337 11.5268 31.0337ZM11.5268 18.9334C10.0763 18.9334 8.73738 19.4534 7.73317 20.3935C6.78476 21.2735 6.26409 22.4335 6.26409 23.6535C6.26409 24.3536 6.43139 24.9938 6.76612 25.5938C7.62156 27.1138 9.44401 28.0536 11.5268 28.0536C13.6096 28.0536 15.432 27.1138 16.2689 25.6138C16.6036 25.0338 16.771 24.3736 16.771 23.6735C16.771 22.4535 16.2504 21.2935 15.3019 20.3935C14.3163 19.4534 12.9773 18.9334 11.5268 18.9334Z" fill="white"/>
<path d="M11.5268 36.5373C6.93349 36.5373 3.47463 33.3572 3.47463 29.1572V23.657C3.47463 19.3969 7.08226 15.9369 11.5268 15.9369C13.6282 15.9369 15.6367 16.7169 17.1429 18.1169C18.705 19.5969 19.5791 21.557 19.5791 23.657V29.1572C19.5791 33.3572 16.1201 36.5373 11.5268 36.5373ZM11.5268 18.9369C8.62577 18.9369 6.26409 21.057 6.26409 23.657V29.1572C6.26409 31.6572 8.51419 33.5372 11.5268 33.5372C14.5394 33.5372 16.7896 31.6572 16.7896 29.1572V23.657C16.7896 22.437 16.269 21.277 15.3206 20.377C14.3163 19.4569 12.9773 18.9369 11.5268 18.9369Z" fill="white"/>
<path d="M33.6009 25.0352C30.7928 25.0352 28.4125 22.7952 28.1893 19.9151C28.0405 18.2551 28.5984 16.6351 29.7142 15.455C30.644 14.415 31.9644 13.835 33.3591 13.835H37.2458C39.0868 13.895 40.5001 15.455 40.5001 17.3751V21.4952C40.5001 23.4152 39.0868 24.9752 37.3015 25.0352H33.6009ZM37.19 16.8351H33.3777C32.7268 16.8351 32.1317 17.0951 31.704 17.5751C31.1647 18.1351 30.9044 18.8951 30.9788 19.6551C31.0717 20.9752 32.2619 22.0352 33.6009 22.0352H37.2458C37.4875 22.0352 37.7107 21.7952 37.7107 21.4952V17.3751C37.7107 17.0751 37.4875 16.8551 37.19 16.8351Z" fill="white"/>
<path d="M27.9481 37.9342H23.299C22.5366 37.9342 21.9043 37.2542 21.9043 36.4341C21.9043 35.6141 22.5366 34.9341 23.299 34.9341H27.9481C32.746 34.9341 35.8516 31.594 35.8516 26.4339V25.0339H33.6014C30.7934 25.0339 28.413 22.7938 28.1899 19.9138C28.0411 18.2537 28.5992 16.6337 29.715 15.4537C30.6448 14.4137 31.965 13.8337 33.3597 13.8337H35.833V12.4336C35.833 7.7535 33.2855 4.53339 29.1571 4.01338C28.7108 3.93338 28.3201 3.93342 27.9295 3.93342H11.1928C10.7465 3.93342 10.3188 3.9734 9.89104 4.0334C5.79983 4.59341 3.28933 7.7935 3.28933 12.4336V16.4337C3.28933 17.2537 2.65706 17.9337 1.8946 17.9337C1.13215 17.9337 0.49987 17.2537 0.49987 16.4337V12.4336C0.49987 6.27347 4.03326 1.81339 9.51921 1.07337C10.0213 0.993371 10.5977 0.93335 11.1928 0.93335H27.9295C28.3759 0.93335 28.9523 0.95335 29.5474 1.05335C35.0334 1.73337 38.6225 6.21347 38.6225 12.4336V15.3337C38.6225 16.1537 37.9902 16.8337 37.2277 16.8337H33.3597C32.7088 16.8337 32.1139 17.0937 31.6862 17.5737C31.1469 18.1337 30.8864 18.8937 30.9608 19.6538C31.0537 20.9738 32.2441 22.0338 33.583 22.0338H37.2463C38.0088 22.0338 38.6411 22.7138 38.6411 23.5339V26.4339C38.6411 33.3141 34.3453 37.9342 27.9481 37.9342Z" fill="white"/>
</svg>
