<svg width="40" height="41" viewBox="0 0 40 41" fill="none" xmlns="http://www.w3.org/2000/svg">
<path d="M36.9924 8.18671C38.7441 8.8023 40 10.4712 40 12.4333V32.4333C40 37.1278 36.1944 40.9333 31.5 40.9333H11.5C9.53782 40.9333 7.86895 39.6775 7.25336 37.9257L11.4479 37.9325L31.5 37.9333C34.5376 37.9333 37 35.4709 37 32.4333V12.4333L36.992 12.3314L36.9924 8.18671ZM30.4936 0.93335C32.9789 0.93335 34.9936 2.94807 34.9936 5.43335V31.427C34.9936 33.9123 32.9789 35.927 30.4936 35.927H4.5C2.01472 35.927 0 33.9123 0 31.427V5.43335C0 2.94807 2.01472 0.93335 4.5 0.93335H30.4936ZM30.4936 3.93335H4.5C3.67157 3.93335 3 4.60492 3 5.43335V31.427C3 32.2554 3.67157 32.927 4.5 32.927H30.4936C31.3221 32.927 31.9936 32.2554 31.9936 31.427V5.43335C31.9936 4.60492 31.3221 3.93335 30.4936 3.93335ZM15.1623 19.6497L22.9393 11.8727C23.5251 11.2869 24.4749 11.2869 25.0607 11.8727C25.5932 12.4052 25.6416 13.2386 25.2059 13.8258L25.0607 13.994L16.0607 22.994C15.469 23.5857 14.5227 23.5712 13.9472 23.0022L13.8 22.8333L10.8 18.8333C10.3029 18.1706 10.4373 17.2304 11.1 16.7333C11.7025 16.2815 12.5343 16.3514 13.054 16.8658L13.2 17.0333L15.1623 19.6497Z" fill="white"/>
</svg>
