<svg width="36" height="37" viewBox="0 0 36 37" fill="none" xmlns="http://www.w3.org/2000/svg">
<g clip-path="url(#clip0_1539_7308)">
<path d="M27.5625 0.183594H8.4375C3.7776 0.183594 0 3.96119 0 8.62109V27.7461C0 32.406 3.7776 36.1836 8.4375 36.1836H27.5625C32.2224 36.1836 36 32.406 36 27.7461V8.62109C36 3.96119 32.2224 0.183594 27.5625 0.183594Z" fill="#5865F2"/>
<mask id="mask0_1539_7308" style="mask-type:luminance" maskUnits="userSpaceOnUse" x="3" y="7" width="30" height="23">
<path d="M3.9375 7.35547H32.0625V29.1425H3.9375V7.35547Z" fill="white"/>
</mask>
<g mask="url(#mask0_1539_7308)">
<path d="M27.7464 9.29568C25.923 8.45865 23.9987 7.86178 22.0216 7.52C22.0037 7.51668 21.9851 7.5191 21.9686 7.52693C21.9521 7.53476 21.9385 7.54759 21.9297 7.5636C21.6825 8.00319 21.4085 8.57694 21.2169 9.02779C19.055 8.70407 16.9044 8.70407 14.7871 9.02779C14.5952 8.56682 14.3115 8.00319 14.0631 7.5636C14.0539 7.54792 14.0402 7.53537 14.0238 7.52759C14.0074 7.51981 13.989 7.51717 13.971 7.52C11.9938 7.86109 10.0694 8.45799 8.2463 9.29568C8.2307 9.3023 8.21753 9.3136 8.20862 9.32802C4.56249 14.7753 3.56377 20.0886 4.05371 25.3362C4.05507 25.3491 4.05901 25.3615 4.0653 25.3728C4.07158 25.3841 4.08007 25.3941 4.09027 25.402C6.49581 27.1687 8.8261 28.2412 11.1131 28.9521C11.1309 28.9574 11.1499 28.9572 11.1675 28.9514C11.1851 28.9456 11.2006 28.9346 11.2118 28.9198C11.7528 28.1809 12.235 27.402 12.6486 26.5828C12.6543 26.5716 12.6575 26.5593 12.6581 26.5468C12.6587 26.5342 12.6566 26.5216 12.652 26.5099C12.6474 26.4982 12.6404 26.4876 12.6314 26.4788C12.6224 26.4701 12.6116 26.4633 12.5998 26.459C11.8348 26.1687 11.1065 25.815 10.4059 25.4133C10.3931 25.4058 10.3824 25.3952 10.3747 25.3826C10.367 25.3699 10.3625 25.3556 10.3616 25.3408C10.3607 25.326 10.3635 25.3113 10.3697 25.2978C10.3758 25.2843 10.3852 25.2726 10.397 25.2636C10.5448 25.1532 10.6901 25.0393 10.8327 24.9222C10.8452 24.9119 10.8603 24.9053 10.8763 24.9031C10.8924 24.9009 10.9087 24.9032 10.9235 24.9098C15.5265 27.0113 20.5095 27.0113 25.058 24.9098C25.0729 24.9028 25.0894 24.9001 25.1057 24.9021C25.122 24.9041 25.1374 24.9107 25.1501 24.9211C25.2929 25.0389 25.4385 25.1531 25.5869 25.2636C25.5988 25.2725 25.6082 25.2842 25.6145 25.2976C25.6208 25.311 25.6237 25.3257 25.6229 25.3405C25.6221 25.3553 25.6177 25.3697 25.6101 25.3824C25.6025 25.395 25.5919 25.4057 25.5792 25.4133C24.8782 25.8226 24.1439 26.172 23.3842 26.4578C23.3724 26.4623 23.3617 26.4693 23.3527 26.4782C23.3438 26.4872 23.3369 26.4979 23.3324 26.5097C23.3279 26.5215 23.3259 26.5341 23.3266 26.5467C23.3273 26.5593 23.3307 26.5716 23.3365 26.5828C23.7572 27.3955 24.237 28.1762 24.772 28.9186C24.7829 28.9338 24.7983 28.9452 24.816 28.9512C24.8337 28.9572 24.8528 28.9575 24.8707 28.9521C27.1688 28.2412 29.4991 27.1687 31.9048 25.402C31.9151 25.3944 31.9237 25.3847 31.93 25.3736C31.9363 25.3624 31.9401 25.3501 31.9413 25.3373C32.5277 19.2706 30.9591 14.0007 27.7829 9.32915C27.7751 9.31397 27.7622 9.30209 27.7464 9.29568ZM13.3359 22.1411C11.9501 22.1411 10.8082 20.8688 10.8082 19.3063C10.8082 17.7439 11.928 16.4716 13.3359 16.4716C14.7549 16.4716 15.8856 17.7551 15.8634 19.3063C15.8634 20.8688 14.7437 22.1411 13.3359 22.1411ZM22.6813 22.1411C21.2955 22.1411 20.1537 20.8688 20.1537 19.3063C20.1537 17.7439 21.2734 16.4716 22.6813 16.4716C24.1002 16.4716 25.231 17.7551 25.2089 19.3063C25.2089 20.8688 24.1002 22.1411 22.6813 22.1411Z" fill="white"/>
</g>
</g>
<defs>
<clipPath id="clip0_1539_7308">
<rect width="36" height="36" fill="white" transform="translate(0 0.183594)"/>
</clipPath>
</defs>
</svg>
