<svg width="36" height="37" viewBox="0 0 36 37" fill="none" xmlns="http://www.w3.org/2000/svg">
<g clip-path="url(#clip0_1539_7300)">
<path d="M27.5625 0.183594H8.4375C3.7776 0.183594 0 3.96119 0 8.62109V27.7461C0 32.406 3.7776 36.1836 8.4375 36.1836H27.5625C32.2224 36.1836 36 32.406 36 27.7461V8.62109C36 3.96119 32.2224 0.183594 27.5625 0.183594Z" fill="url(#paint0_radial_1539_7300)"/>
<path d="M27.5625 0.183594H8.4375C3.7776 0.183594 0 3.96119 0 8.62109V27.7461C0 32.406 3.7776 36.1836 8.4375 36.1836H27.5625C32.2224 36.1836 36 32.406 36 27.7461V8.62109C36 3.96119 32.2224 0.183594 27.5625 0.183594Z" fill="url(#paint1_radial_1539_7300)"/>
<path d="M18.0013 4.12109C14.1822 4.12109 13.7028 4.13783 12.2029 4.20603C10.7058 4.27466 9.68386 4.51161 8.78977 4.85938C7.86473 5.21853 7.08019 5.69905 6.29859 6.48092C5.5163 7.26266 5.03578 8.0472 4.6755 8.97181C4.32675 9.86619 4.08952 10.8885 4.02216 12.3849C3.95508 13.885 3.9375 14.3645 3.9375 18.1837C3.9375 22.003 3.95438 22.4808 4.02244 23.9807C4.09134 25.4778 4.3283 26.4997 4.67578 27.3938C5.03522 28.3189 5.51573 29.1034 6.29761 29.885C7.07906 30.6673 7.86361 31.1489 8.78794 31.5081C9.68273 31.8559 10.7048 32.0928 12.2016 32.1614C13.7017 32.2296 14.1806 32.2464 17.9996 32.2464C21.8191 32.2464 22.2969 32.2296 23.7968 32.1614C25.2939 32.0928 26.317 31.8559 27.2118 31.5081C28.1364 31.1489 28.9198 30.6673 29.7011 29.885C30.4834 29.1034 30.9638 28.3189 31.3242 27.3943C31.6699 26.4997 31.9072 25.4775 31.9776 23.981C32.0449 22.4811 32.0625 22.003 32.0625 18.1837C32.0625 14.3645 32.0449 13.8853 31.9776 12.3852C31.9072 10.8881 31.6699 9.86633 31.3242 8.97223C30.9638 8.0472 30.4834 7.26266 29.7011 6.48092C28.919 5.69877 28.1367 5.21825 27.2109 4.85952C26.3145 4.51161 25.292 4.27452 23.7949 4.20603C22.2948 4.13783 21.8173 4.12109 17.9969 4.12109H18.0013ZM16.7397 6.6553C17.1142 6.65473 17.532 6.6553 18.0013 6.6553C21.7561 6.6553 22.201 6.6688 23.6838 6.73616C25.0549 6.79888 25.7991 7.02795 26.2948 7.22047C26.9511 7.47528 27.4189 7.78002 27.9108 8.27234C28.403 8.76453 28.7076 9.23323 28.9631 9.88953C29.1556 10.3845 29.385 11.1287 29.4474 12.4998C29.5148 13.9823 29.5294 14.4275 29.5294 18.1805C29.5294 21.9335 29.5148 22.3789 29.4474 23.8612C29.3847 25.2323 29.1556 25.9765 28.9631 26.4716C28.7083 27.1279 28.403 27.5952 27.9108 28.0871C27.4186 28.5793 26.9513 28.8839 26.2948 29.1388C25.7996 29.3322 25.0549 29.5607 23.6838 29.6234C22.2013 29.6908 21.7561 29.7054 18.0013 29.7054C14.2463 29.7054 13.8012 29.6908 12.3189 29.6234C10.9478 29.5602 10.2036 29.3311 9.70748 29.1386C9.05133 28.8836 8.58248 28.579 8.0903 28.0868C7.59811 27.5946 7.29352 27.1271 7.038 26.4705C6.84548 25.9753 6.61613 25.2312 6.55369 23.8601C6.48633 22.3776 6.47283 21.9324 6.47283 18.177C6.47283 14.4217 6.48633 13.9788 6.55369 12.4963C6.61641 11.1252 6.84548 10.381 7.038 9.88531C7.29295 9.22902 7.59811 8.76031 8.09044 8.26813C8.58263 7.77594 9.05133 7.4712 9.70762 7.21583C10.2033 7.02247 10.9478 6.79395 12.3189 6.73095C13.6162 6.67231 14.1189 6.65473 16.7397 6.65178V6.6553ZM25.5078 8.99023C24.5762 8.99023 23.8203 9.74539 23.8203 10.6772C23.8203 11.6088 24.5762 12.3647 25.5078 12.3647C26.4395 12.3647 27.1953 11.6088 27.1953 10.6772C27.1953 9.74553 26.4395 8.98967 25.5078 8.98967V8.99023ZM18.0013 10.9619C14.0131 10.9619 10.7796 14.1955 10.7796 18.1837C10.7796 22.172 14.0131 25.404 18.0013 25.404C21.9895 25.404 25.2219 22.172 25.2219 18.1837C25.2219 14.1956 21.9893 10.9619 18.001 10.9619H18.0013ZM18.0013 13.4961C20.59 13.4961 22.6889 15.5947 22.6889 18.1837C22.6889 20.7725 20.59 22.8713 18.0013 22.8713C15.4124 22.8713 13.3138 20.7725 13.3138 18.1837C13.3138 15.5947 15.4124 13.4961 18.0013 13.4961Z" fill="white"/>
</g>
<defs>
<radialGradient id="paint0_radial_1539_7300" cx="0" cy="0" r="1" gradientUnits="userSpaceOnUse" gradientTransform="translate(9.5625 38.9563) rotate(-90) scale(35.6787 33.184)">
<stop stop-color="#FFDD55"/>
<stop offset="0.1" stop-color="#FFDD55"/>
<stop offset="0.5" stop-color="#FF543E"/>
<stop offset="1" stop-color="#C837AB"/>
</radialGradient>
<radialGradient id="paint1_radial_1539_7300" cx="0" cy="0" r="1" gradientUnits="userSpaceOnUse" gradientTransform="translate(-6.03014 2.77686) rotate(78.681) scale(15.9486 65.7405)">
<stop stop-color="#3771C8"/>
<stop offset="0.128" stop-color="#3771C8"/>
<stop offset="1" stop-color="#6600FF" stop-opacity="0"/>
</radialGradient>
<clipPath id="clip0_1539_7300">
<rect width="36" height="36" fill="white" transform="translate(0 0.183594)"/>
</clipPath>
</defs>
</svg>
