<svg width="36" height="37" viewBox="0 0 36 37" fill="none" xmlns="http://www.w3.org/2000/svg">
<g clip-path="url(#clip0_1539_7316)">
<path d="M27.5625 0.183594H8.4375C3.7776 0.183594 0 3.96119 0 8.62109V27.7461C0 32.406 3.7776 36.1836 8.4375 36.1836H27.5625C32.2224 36.1836 36 32.406 36 27.7461V8.62109C36 3.96119 32.2224 0.183594 27.5625 0.183594Z" fill="white"/>
<path d="M27.5625 0.183594H8.4375C3.7776 0.183594 0 3.96119 0 8.62109V27.7461C0 32.406 3.7776 36.1836 8.4375 36.1836H27.5625C32.2224 36.1836 36 32.406 36 27.7461V8.62109C36 3.96119 32.2224 0.183594 27.5625 0.183594Z" fill="#0A66C2"/>
<path d="M25.9755 30.7955H30.0916C30.2408 30.7955 30.3839 30.7363 30.4893 30.6308C30.5948 30.5254 30.6541 30.3823 30.6541 30.2332L30.6562 21.5367C30.6562 16.9912 29.6768 13.4974 24.365 13.4974C22.3457 13.4223 20.4415 14.4632 19.414 16.2013C19.409 16.2098 19.4013 16.2164 19.3922 16.22C19.3831 16.2237 19.373 16.2243 19.3636 16.2218C19.3541 16.2192 19.3457 16.2136 19.3397 16.2058C19.3337 16.1981 19.3304 16.1885 19.3303 16.1787V14.4795C19.3303 14.3303 19.271 14.1873 19.1656 14.0818C19.0601 13.9763 18.917 13.917 18.7678 13.917H14.8617C14.7125 13.917 14.5694 13.9763 14.4639 14.0818C14.3584 14.1873 14.2992 14.3303 14.2992 14.4795V30.2323C14.2992 30.3815 14.3584 30.5246 14.4639 30.6301C14.5694 30.7356 14.7125 30.7948 14.8617 30.7948H18.9775C19.1267 30.7948 19.2697 30.7356 19.3752 30.6301C19.4807 30.5246 19.54 30.3815 19.54 30.2323V22.4455C19.54 20.2438 19.9576 18.1115 22.6873 18.1115C25.3782 18.1115 25.413 20.6309 25.413 22.5881V30.233C25.413 30.3822 25.4723 30.5253 25.5778 30.6308C25.6833 30.7363 25.8264 30.7955 25.9755 30.7955ZM5.34375 8.56878C5.34375 10.2372 6.71723 11.6099 8.38575 11.6099C10.0538 11.6098 11.4265 10.2362 11.4265 8.56808C11.4262 6.89998 10.0534 5.52734 8.38519 5.52734C6.71653 5.52734 5.34375 6.90041 5.34375 8.56878ZM6.32236 30.7955H10.4437C10.5928 30.7955 10.7359 30.7363 10.8414 30.6308C10.9469 30.5253 11.0062 30.3822 11.0062 30.233V14.4795C11.0062 14.3303 10.9469 14.1873 10.8414 14.0818C10.7359 13.9763 10.5928 13.917 10.4437 13.917H6.32236C6.17318 13.917 6.0301 13.9763 5.92461 14.0818C5.81912 14.1873 5.75986 14.3303 5.75986 14.4795V30.233C5.75986 30.3822 5.81912 30.5253 5.92461 30.6308C6.0301 30.7363 6.17318 30.7955 6.32236 30.7955Z" fill="white"/>
</g>
<defs>
<clipPath id="clip0_1539_7316">
<rect width="36" height="36" fill="white" transform="translate(0 0.183594)"/>
</clipPath>
</defs>
</svg>
