<svg id="Layer_1" data-name="Layer 1" xmlns="http://www.w3.org/2000/svg" xmlns:xlink="http://www.w3.org/1999/xlink" viewBox="0 0 1240.32 369.67"><defs><style>.cls-1{fill:url(#radial-gradient);}.cls-2{fill:url(#radial-gradient-2);}.cls-3{fill:url(#radial-gradient-5);}</style><radialGradient id="radial-gradient" cx="137.67" cy="94" r="1373.64" gradientUnits="userSpaceOnUse"><stop offset="0" stop-color="#886542"/><stop offset="0.52" stop-color="#bda05f"/><stop offset="1" stop-color="#846140"/></radialGradient><radialGradient id="radial-gradient-2" cx="137.67" cy="94" r="1373.64" gradientUnits="userSpaceOnUse"><stop offset="0" stop-color="#886542"/><stop offset="0.52" stop-color="#bda05f"/><stop offset="1" stop-color="#846140"/></radialGradient><radialGradient id="radial-gradient-5" cx="137.67" cy="106.23" r="1373.64" xlink:href="#radial-gradient"/></defs><path class="cls-1" d="M866.53,367.43a66.33,66.33,0,0,0-.71-7.58c-1-6.11-2-12.24-3.5-18.22a211.1,211.1,0,0,0-6.86-22.3,155.44,155.44,0,0,0-14.53-28.86,180.23,180.23,0,0,0-17.57-23.42,170,170,0,0,0-32-27.75,167.47,167.47,0,0,0-40.33-20c-6.12-2.05-12.39-3.71-18.68-5.17-4.6-1.06-9.34-1.52-14-2.18-3.56-.51-7.16-.65-10.71-1.27a24.46,24.46,0,0,0-4.27-.45q-89.49-.09-179-.07h-5.89a29.51,29.51,0,0,0-.4,3.33q0,27,.09,54,.06,45.69.11,91.39c0,82.69,0,31.87-.07,99.45a28.21,28.21,0,0,0,28.2,28.23c0-82.11,0-26.81,0-115.74q0-59.67,0-119.36c0-3.86-.08-7.72.05-11.57,0-.59.91-1.3,1.56-1.66.49-.27,1.25-.08,1.89-.08q32,.16,64.07.32c3.36,0,6.72-.28,10.07-.3,7,0,14-.15,21,0,22.34.52,44.72-1.4,67,1.37a110.38,110.38,0,0,1,11.52,1.57,196.47,196.47,0,0,1,19.61,5.36A138.81,138.81,0,0,1,790.05,274a145.47,145.47,0,0,1,26.7,31.19A135.76,135.76,0,0,1,834,345.1c1.67,6.68,2.53,13.58,3.64,20.35a58.72,58.72,0,0,1,.87,8.13c.19,7.76-.18,15.54-.7,23.28a104.32,104.32,0,0,1-1.93,12.23c-.34,1.79-.81,3.56-1.32,5.31-1.5,5.23-2.66,10.58-4.41,15.73C826.48,441,821,451,814.71,460.61a122.56,122.56,0,0,1-13.85,18.11,161.43,161.43,0,0,1-25.65,21.7c-10.59,7.22-22.18,12.35-34.14,16.75a79.86,79.86,0,0,1-8,2.39c-4,1-7.8,2.64-12,2.45-1.54-.07-3.16-.35-4.32,1.15-.16.21-.65.21-1,.23-6.48.33-13,.83-19.44.93-16.11.25-32.23.34-48.35.46-5.48,0-11,0-16.45,0H610V302.52c-.1,0,0,0,.11,0,27.89.11,55.77.13,83.65.42,4.24,0,8.52,1.1,12.7,2.06a68.72,68.72,0,0,1,16.35,5.87c13.57,7.05,24.76,16.61,32.59,29.88,4.23,7.17,7.89,14.57,9.71,22.78a76.53,76.53,0,0,1,2.13,16.95,107.43,107.43,0,0,1-1.09,15.83,74.35,74.35,0,0,1-3.56,13.91,78.59,78.59,0,0,1-22.92,33.23c-10.68,9.19-22.89,15.53-36.93,18-3.55.62-7.09,1.73-10.65,1.79-7.22.12-26.64.1-43.52.06v1.61a26.43,26.43,0,0,0,26.59,26.42h.13c7.7-.06,15.41-.1,23.1-.39a64.45,64.45,0,0,0,11.22-1.63c5.53-1.43,11-3,16.42-4.94a69.7,69.7,0,0,0,8.8-4.34c1.64-.86,3.12-2.1,4.84-2.73a48.24,48.24,0,0,0,12.5-7.38,110.64,110.64,0,0,0,18.91-18.23,107.14,107.14,0,0,0,21.67-43.7c1-4.1,1.55-8.3,2.12-12.48.52-3.86.9-7.76,1-11.66a43.63,43.63,0,0,0-.19-5.94,92.94,92.94,0,0,0-.9-9.58c-1.12-5.57-2.5-11.09-3.75-16.64-1.41-6.25-4.15-12-6.9-17.71-4.35-9-10.37-17-16.83-24.55a62.53,62.53,0,0,0-5.22-5.33c-8-7-16.37-13.48-26-18.23a96.9,96.9,0,0,0-20.92-7.8c-3.53-.82-7-1.7-10.6-2.39a58,58,0,0,0-8-1.06c-4.41-.23-8.84-.26-13.26-.27q-47.5,0-95,0h-6.73v6.36q0,135,0,270c0,1.67.42,2.16,2.12,2.16,22.26,0,44.51.19,66.76-.1,21.29-.28,42.6,1.25,63.87-1.2,4.45-.52,8.92-.93,13.31-1.77,5.61-1.08,11.18-2.45,16.71-3.9,3.29-.87,6.46-2.16,9.7-3.21a133.45,133.45,0,0,0,30.07-13.87A194,194,0,0,0,813.31,506a113.11,113.11,0,0,0,8.71-9.08c4.12-4.81,8.29-9.53,12.19-14.55a133.33,133.33,0,0,0,14.54-23.71c2.64-5.44,4.89-11.07,7.32-16.61l1.44-4.3a15.39,15.39,0,0,0,.59-1.55c1.79-6.73,3.82-13.41,5.27-20.21,1.28-6.06,2.11-12.23,2.78-18.4.54-4.93.66-9.92.73-14.88S866.66,372.52,866.53,367.43Z" transform="translate(-68.03 -183.24)"/><path class="cls-2" d="M838.87,477.85c-.43-71.49,28.91-126.72,90.89-163.57,51-30.33,107.93-43.61,165-56.24,29.06-6.43,58.34-11.89,87.3-18.7,43.37-10.2,86.36-21.68,126.28-52.91-13.85,51.61-42,85.6-83.81,108.88-34.39,19.17-73.25,21.64-110.85,28.43-41.7,7.52-83.46,14.57-123.86,27.79C922.85,373.45,869,410.84,838.87,477.85Z" transform="translate(-68.03 -183.24)"/><path class="cls-1" d="M878,454.28c13.15-21.71,32.12-36.64,53-49.39,42.31-25.81,89.49-37.59,137.37-47.12,60.46-12,122.28-17.56,185-40.56-31.86,42.91-70.51,66.92-118.3,75.45-37.19,6.63-74.79,11-112.16,16.75C972.51,417.13,923.23,428.72,878,454.28Z" transform="translate(-68.03 -183.24)"/><path class="cls-1" d="M896,473.34c86.29-48.07,184.59-42.9,277.23-62.65C1090.25,472.39,991.76,467.29,896,473.34Z" transform="translate(-68.03 -183.24)"/><path class="cls-3" d="M537.49,474.66c.43-71.49-28.91-126.73-90.88-163.57-51-30.33-107.93-43.61-165-56.24-29.05-6.44-58.33-11.89-87.3-18.7C150.94,226,108,214.47,68,183.24c13.85,51.61,42,85.6,83.8,108.88,34.4,19.16,73.25,21.64,110.86,28.42,41.7,7.52,83.45,14.57,123.86,27.8C453.52,370.26,507.41,407.65,537.49,474.66Z" transform="translate(-68.03 -183.24)"/><path class="cls-3" d="M498.36,451.09c-13.15-21.71-32.13-36.64-53-49.39C403,375.89,355.85,364.11,308,354.57,247.51,342.53,185.69,337,123,314c31.86,42.91,70.5,66.92,118.29,75.44,37.2,6.64,74.8,11,112.16,16.76C403.86,413.94,453.14,425.53,498.36,451.09Z" transform="translate(-68.03 -183.24)"/><path class="cls-3" d="M480.4,470.15c-86.3-48.07-184.59-42.9-277.23-62.65C286.11,469.2,384.6,464.1,480.4,470.15Z" transform="translate(-68.03 -183.24)"/></svg>