<?xml version="1.0" encoding="utf-8"?>
<!-- Generator: Adobe Illustrator 22.0.1, SVG Export Plug-In . SVG Version: 6.00 Build 0)  -->
<svg version="1.1" id="Шар_1" xmlns="http://www.w3.org/2000/svg" xmlns:xlink="http://www.w3.org/1999/xlink" x="0px" y="0px"
	 viewBox="0 0 301 301" style="enable-background:new 0 0 301 301;" xml:space="preserve">
<style type="text/css">
	.st0{fill:url(#SVGID_1_);stroke:#656565;}
	.st1{fill:url(#SVGID_2_);stroke:#656565;}
	.st2{fill:url(#SVGID_3_);stroke:#656565;}
	.st3{fill:url(#SVGID_4_);stroke:#656565;}
	.st4{fill:url(#SVGID_5_);stroke:#656565;}
	.st5{fill:url(#SVGID_6_);stroke:#656565;}
	.st6{fill:url(#SVGID_7_);stroke:#656565;}
	.st7{fill:url(#SVGID_8_);stroke:#656565;}
</style>
<linearGradient id="SVGID_1_" gradientUnits="userSpaceOnUse" x1="150.5006" y1="301.6689" x2="150.5006" y2="241.3177" gradientTransform="matrix(1 0 0 -1 0 302.1689)">
	<stop  offset="0" style="stop-color:#D7AC6F"/>
	<stop  offset="1" style="stop-color:#63461C"/>
</linearGradient>
<path class="st0" d="M96.2,19.3c-1.7-4.1,0.2-8.8,4.4-10.3c32.3-11.4,67.6-11.4,99.9,0c4.2,1.5,6.1,6.2,4.4,10.3l-17.2,41.5
	c-1.7,4.1-6.4,6-10.6,4.7c-17.3-5.4-35.8-5.4-53.1,0c-4.2,1.3-8.9-0.6-10.6-4.7L96.2,19.3z"/>
<linearGradient id="SVGID_2_" gradientUnits="userSpaceOnUse" x1="150.5026" y1="1.6682" x2="150.5026" y2="62.0192" gradientTransform="matrix(1 0 0 -1 0 302.1689)">
	<stop  offset="0" style="stop-color:#D7AC6F"/>
	<stop  offset="1" style="stop-color:#63461C"/>
</linearGradient>
<path class="st1" d="M204.8,281.7c1.7,4.1-0.2,8.8-4.4,10.3c-32.3,11.4-67.6,11.4-99.9,0c-4.2-1.5-6.1-6.2-4.4-10.3l17.2-41.5
	c1.7-4.1,6.4-6,10.6-4.7c17.3,5.4,35.8,5.4,53.1,0c4.2-1.3,8.9,0.6,10.6,4.7L204.8,281.7z"/>
<linearGradient id="SVGID_3_" gradientUnits="userSpaceOnUse" x1="300.5011" y1="151.6684" x2="240.1501" y2="151.6684" gradientTransform="matrix(1 0 0 -1 0 302.1689)">
	<stop  offset="0" style="stop-color:#D7AC6F"/>
	<stop  offset="1" style="stop-color:#63461C"/>
</linearGradient>
<path class="st2" d="M281.7,96.2c4.1-1.7,8.8,0.2,10.3,4.4c11.4,32.3,11.4,67.6,0,99.9c-1.5,4.2-6.2,6.1-10.3,4.4l-41.5-17.2
	c-4.1-1.7-6-6.4-4.7-10.6c5.4-17.3,5.4-35.8,0-53.1c-1.3-4.2,0.6-8.9,4.7-10.6L281.7,96.2z"/>
<linearGradient id="SVGID_4_" gradientUnits="userSpaceOnUse" x1="0.5" y1="151.6681" x2="60.8504" y2="151.6681" gradientTransform="matrix(1 0 0 -1 0 302.1689)">
	<stop  offset="0" style="stop-color:#D7AC6F"/>
	<stop  offset="1" style="stop-color:#63461C"/>
</linearGradient>
<path class="st3" d="M19.3,204.8c-4.1,1.7-8.8-0.2-10.3-4.4c-11.4-32.3-11.4-67.6,0-99.9c1.5-4.2,6.2-6.1,10.3-4.4l41.5,17.2
	c4.1,1.7,6,6.4,4.7,10.6c-5.4,17.3-5.4,35.8,0,53.1c1.3,4.2-0.6,8.9-4.7,10.6L19.3,204.8z"/>
<linearGradient id="SVGID_5_" gradientUnits="userSpaceOnUse" x1="256.5324" y1="257.9548" x2="213.7524" y2="215.1746" gradientTransform="matrix(1 0 0 -1 0 302.1689)">
	<stop  offset="0" style="stop-color:#181818"/>
	<stop  offset="1" style="stop-color:#0B0B0B"/>
</linearGradient>
<path class="st4" d="M204.7,19.2c1.7-4.1,6.4-6,10.4-4.1c30.9,14.8,55.8,39.7,70.6,70.6c1.9,4-0.1,8.7-4.1,10.4l-41.5,17.2
	c-4.1,1.7-8.7-0.3-10.8-4.2c-8.4-16.1-21.5-29.2-37.6-37.6c-3.9-2.1-5.9-6.7-4.2-10.8L204.7,19.2z"/>
<linearGradient id="SVGID_6_" gradientUnits="userSpaceOnUse" x1="44.3417" y1="45.5105" x2="87.1216" y2="88.2905" gradientTransform="matrix(1 0 0 -1 0 302.1689)">
	<stop  offset="0" style="stop-color:#181818"/>
	<stop  offset="1" style="stop-color:#0B0B0B"/>
</linearGradient>
<path class="st5" d="M96.2,281.7c-1.7,4.1-6.4,6-10.4,4.1C54.9,271,30,246.1,15.2,215.2c-1.9-4,0.1-8.7,4.1-10.4l41.5-17.2
	c4.1-1.7,8.7,0.3,10.8,4.2c8.4,16.1,21.5,29.2,37.6,37.6c3.9,2,5.9,6.7,4.2,10.8L96.2,281.7z"/>
<linearGradient id="SVGID_7_" gradientUnits="userSpaceOnUse" x1="256.6577" y1="45.5095" x2="213.8777" y2="88.2895" gradientTransform="matrix(1 0 0 -1 0 302.1689)">
	<stop  offset="0" style="stop-color:#181818"/>
	<stop  offset="1" style="stop-color:#0B0B0B"/>
</linearGradient>
<path class="st6" d="M281.7,204.8c4.1,1.7,6,6.4,4.1,10.4c-14.8,30.9-39.7,55.8-70.6,70.6c-4,1.9-8.7-0.1-10.4-4.1l-17.2-41.5
	c-1.7-4.1,0.3-8.7,4.2-10.8c16.1-8.4,29.2-21.5,37.6-37.6c2-3.9,6.7-5.9,10.8-4.2L281.7,204.8z"/>
<linearGradient id="SVGID_8_" gradientUnits="userSpaceOnUse" x1="44.3419" y1="258.0152" x2="87.1215" y2="215.2354" gradientTransform="matrix(1 0 0 -1 0 302.1689)">
	<stop  offset="0" style="stop-color:#181818"/>
	<stop  offset="1" style="stop-color:#0B0B0B"/>
</linearGradient>
<path class="st7" d="M19.3,96c-4.1-1.7-6-6.4-4.1-10.4C30,54.7,54.9,29.8,85.8,15c4-1.9,8.7,0.1,10.4,4.1l17.2,41.5
	c1.7,4.1-0.3,8.7-4.2,10.8C93.1,79.8,80,92.9,71.6,109c-2.1,3.9-6.7,5.9-10.8,4.2L19.3,96z"/>
</svg>
