<svg width="36" height="37" viewBox="0 0 36 37" fill="none" xmlns="http://www.w3.org/2000/svg">
<g clip-path="url(#clip0_1539_7305)">
<path d="M18 0.183594C13.2272 0.183594 8.64563 2.08119 5.27344 5.45563C1.89777 8.8314 0.000935072 13.4096 0 18.1836C0 22.9556 1.89844 27.5371 5.27344 30.9116C8.64563 34.286 13.2272 36.1836 18 36.1836C22.7728 36.1836 27.3544 34.286 30.7266 30.9116C34.1016 27.5371 36 22.9556 36 18.1836C36 13.4116 34.1016 8.83006 30.7266 5.45563C27.3544 2.08119 22.7728 0.183594 18 0.183594Z" fill="url(#paint0_linear_1539_7305)"/>
<path d="M8.14777 17.9934C13.3959 15.7074 16.8946 14.2002 18.644 13.472C23.6446 11.3928 24.6825 11.0316 25.3603 11.0194C25.5093 11.017 25.8412 11.0538 26.0578 11.2289C26.2378 11.3766 26.2884 11.5763 26.3137 11.7165C26.3362 11.8565 26.3671 12.1758 26.3418 12.4249C26.0718 15.2712 24.899 22.1781 24.3028 25.3661C24.0525 26.715 23.5546 27.1672 23.0737 27.2114C22.0275 27.3076 21.2343 26.5206 20.2218 25.8572C18.6384 24.8185 17.744 24.1722 16.2056 23.1588C14.4281 21.9877 15.5812 21.3439 16.5937 20.2921C16.8581 20.0167 21.465 15.8275 21.5521 15.4475C21.5634 15.4 21.5746 15.2228 21.4678 15.1294C21.3637 15.0358 21.209 15.0678 21.0965 15.0932C20.9362 15.1292 18.4078 16.802 13.5028 20.1115C12.7856 20.6048 12.1359 20.8453 11.5509 20.8326C10.9096 20.8188 9.67214 20.4693 8.75245 20.1706C7.62745 19.8041 6.73027 19.6103 6.80902 18.9879C6.84839 18.6639 7.29558 18.3323 8.14777 17.9934Z" fill="white"/>
</g>
<defs>
<linearGradient id="paint0_linear_1539_7305" x1="1800" y1="0.183594" x2="1800" y2="3600.18" gradientUnits="userSpaceOnUse">
<stop stop-color="#2AABEE"/>
<stop offset="1" stop-color="#229ED9"/>
</linearGradient>
<clipPath id="clip0_1539_7305">
<rect width="36" height="36" fill="white" transform="translate(0 0.183594)"/>
</clipPath>
</defs>
</svg>
