<svg width="119" height="73" viewBox="0 0 119 73" fill="none" xmlns="http://www.w3.org/2000/svg">
<path fill-rule="evenodd" clip-rule="evenodd" d="M6.89049 14.6117C40.8345 1.85872 78.2644 1.85871 112.208 14.6117C113.712 15.1766 114.469 16.9097 113.821 18.4749L94.1089 66.0636C93.478 67.5869 91.6776 68.3899 89.9848 67.7976C81.9426 64.9834 73.6061 63.318 65.2157 62.8013C64.7229 62.771 64.257 62.5642 63.9079 62.2152L60.6312 58.9384C59.8501 58.1574 58.5838 58.1574 57.8028 58.9384L54.4795 62.2616C54.1342 62.607 53.6744 62.8131 53.1871 62.8468C45.0318 63.411 36.9339 65.0613 29.1141 67.7976C27.4213 68.3899 25.621 67.5869 24.99 66.0636L5.27813 18.4749C4.6298 16.9097 5.387 15.1766 6.89049 14.6117ZM113.632 10.8233C78.7701 -2.27445 40.3288 -2.27445 5.46715 10.8233C1.73992 12.2237 0.0492175 16.4265 1.53921 20.0237L21.2511 67.6123C22.7584 71.2513 26.8694 72.8707 30.4508 71.6175C49.287 65.0262 69.8119 65.0262 88.6482 71.6175C92.2296 72.8707 96.3405 71.2513 97.8479 67.6123L117.56 20.0236C119.05 16.4265 117.359 12.2237 113.632 10.8233Z" fill="url(#paint0_linear_144_1233)"/>
<path d="M112.208 14.6117L112.033 15.0798L112.208 14.6117ZM6.89049 14.6117L6.71464 14.1437L6.89049 14.6117ZM113.821 18.4749L113.359 18.2836L113.359 18.2836L113.821 18.4749ZM94.1089 66.0636L93.647 65.8722L94.1089 66.0636ZM89.9848 67.7976L90.15 67.3256L89.9848 67.7976ZM29.1141 67.7976L28.949 67.3257L29.1141 67.7976ZM24.99 66.0636L24.528 66.2549L24.528 66.2549L24.99 66.0636ZM5.27813 18.4749L5.74007 18.2836L5.27813 18.4749ZM5.46715 10.8233L5.2913 10.3553L5.46715 10.8233ZM113.632 10.8233L113.808 10.3552L113.632 10.8233ZM1.53921 20.0237L1.07727 20.215L1.53921 20.0237ZM21.2511 67.6123L20.7891 67.8036L21.2511 67.6123ZM30.4508 71.6175L30.6159 72.0894L30.4508 71.6175ZM88.6482 71.6175L88.8133 71.1455L88.6482 71.6175ZM97.8479 67.6123L98.3098 67.8036L98.3098 67.8036L97.8479 67.6123ZM117.56 20.0236L118.022 20.215L117.56 20.0236ZM54.4795 62.2616L54.8331 62.6152L54.4795 62.2616ZM53.1871 62.8468L53.2216 63.3456L53.1871 62.8468ZM57.8028 58.9384L57.4492 58.5849L57.8028 58.9384ZM65.2157 62.8013L65.1849 63.3004L65.2157 62.8013ZM112.384 14.1437C78.3269 1.34807 40.772 1.34807 6.71464 14.1437L7.06634 15.0798C40.897 2.36937 78.2019 2.36936 112.033 15.0798L112.384 14.1437ZM114.283 18.6663C115.036 16.8478 114.16 14.8109 112.384 14.1437L112.033 15.0798C113.264 15.5423 113.902 16.9717 113.359 18.2836L114.283 18.6663ZM94.5709 66.2549L114.283 18.6663L113.359 18.2836L93.647 65.8722L94.5709 66.2549ZM89.8197 68.2695C91.7487 68.9445 93.8328 68.0369 94.5709 66.2549L93.647 65.8722C93.1231 67.137 91.6065 67.8353 90.15 67.3256L89.8197 68.2695ZM65.1849 63.3004C73.5299 63.8142 81.8211 65.4706 89.8197 68.2695L90.15 67.3256C82.0641 64.4962 73.6824 62.8217 65.2464 62.3023L65.1849 63.3004ZM60.2776 59.292L63.5544 62.5687L64.2615 61.8616L60.9847 58.5849L60.2776 59.292ZM54.8331 62.6152L58.1563 59.292L57.4492 58.5849L54.126 61.9081L54.8331 62.6152ZM29.2792 68.2695C37.0566 65.5481 45.1106 63.9068 53.2216 63.3456L53.1526 62.348C44.9531 62.9153 36.8112 64.5745 28.949 67.3257L29.2792 68.2695ZM24.528 66.2549C25.2662 68.0369 27.3502 68.9445 29.2792 68.2695L28.949 67.3257C27.4925 67.8353 25.9758 67.137 25.4519 65.8722L24.528 66.2549ZM4.81619 18.6663L24.528 66.2549L25.4519 65.8722L5.74007 18.2836L4.81619 18.6663ZM6.71464 14.1437C4.93865 14.8109 4.06294 16.8478 4.81619 18.6663L5.74007 18.2836C5.19666 16.9717 5.83535 15.5423 7.06634 15.0798L6.71464 14.1437ZM5.643 11.2914C40.3913 -1.7638 78.7077 -1.7638 113.456 11.2914L113.808 10.3552C78.8326 -2.7851 40.2663 -2.78509 5.2913 10.3553L5.643 11.2914ZM2.00115 19.8323C0.614751 16.4853 2.19145 12.5881 5.643 11.2914L5.2913 10.3553C1.2884 11.8592 -0.516316 16.3677 1.07727 20.215L2.00115 19.8323ZM21.713 67.421L2.00115 19.8323L1.07727 20.215L20.7891 67.8036L21.713 67.421ZM30.2856 71.1455C26.9363 72.3175 23.1116 70.7974 21.713 67.421L20.7891 67.8036C22.4052 71.7053 26.8025 73.4238 30.6159 72.0894L30.2856 71.1455ZM88.8133 71.1455C69.8701 64.5168 49.2288 64.5168 30.2856 71.1455L30.6159 72.0894C49.3453 65.5355 69.7537 65.5355 88.483 72.0894L88.8133 71.1455ZM97.3859 67.4209C95.9874 70.7974 92.1627 72.3175 88.8133 71.1455L88.483 72.0894C92.2964 73.4238 96.6937 71.7053 98.3098 67.8036L97.3859 67.4209ZM117.098 19.8323L97.3859 67.4209L98.3098 67.8036L118.022 20.215L117.098 19.8323ZM113.456 11.2914C116.907 12.5881 118.484 16.4852 117.098 19.8323L118.022 20.215C119.615 16.3677 117.811 11.8592 113.808 10.3552L113.456 11.2914ZM54.126 61.9081C53.8675 62.1666 53.5216 62.3225 53.1526 62.348L53.2216 63.3456C53.8271 63.3037 54.4009 63.0474 54.8331 62.6152L54.126 61.9081ZM60.9847 58.5849C60.0084 57.6085 58.4255 57.6085 57.4492 58.5849L58.1563 59.292C58.7421 58.7062 59.6918 58.7062 60.2776 59.292L60.9847 58.5849ZM65.2464 62.3023C64.8732 62.2793 64.5228 62.1229 64.2615 61.8616L63.5544 62.5687C63.9913 63.0056 64.5726 63.2627 65.1849 63.3004L65.2464 62.3023Z" fill="url(#paint1_linear_144_1233)"/>
<defs>
<linearGradient id="paint0_linear_144_1233" x1="39.6993" y1="2.51761" x2="81.6867" y2="90.7924" gradientUnits="userSpaceOnUse">
<stop offset="0.21883" stop-color="#EBBE7D"/>
<stop offset="1" stop-color="#573B14"/>
</linearGradient>
<linearGradient id="paint1_linear_144_1233" x1="52.8519" y1="-15.4409" x2="52.852" y2="105.969" gradientUnits="userSpaceOnUse">
<stop stop-color="#6A4C21"/>
<stop offset="1" stop-color="#D6AC6F"/>
</linearGradient>
</defs>
</svg>
